<?xml version="1.0" standalone="no"?>
<!DOCTYPE svg PUBLIC "-//W3C//DTD SVG 20010904//EN"
 "http://www.w3.org/TR/2001/REC-SVG-20010904/DTD/svg10.dtd">
<svg version="1.0" xmlns="http://www.w3.org/2000/svg"
 width="1024.000000pt" height="1024.000000pt" viewBox="0 0 1024.000000 1024.000000"
 preserveAspectRatio="xMidYMid meet">
<metadata>
Created by potrace 1.14, written by Peter Selinger 2001-2017
</metadata>
<g transform="translate(0.000000,1024.000000) scale(0.100000,-0.100000)"
fill="#000000" stroke="none">
<path d="M4937 9074 c-2 -2 -32 -6 -68 -9 -35 -3 -77 -8 -94 -12 -16 -3 -42
-6 -57 -6 -16 0 -28 -3 -28 -7 0 -3 -8 -6 -17 -7 -69 -3 -160 -17 -169 -25 -3
-4 -13 -4 -22 -1 -9 4 -13 2 -9 -4 4 -6 -3 -8 -18 -5 -16 3 -25 0 -25 -8 0
-10 -3 -10 -14 -1 -10 8 -15 8 -18 1 -2 -6 -15 -13 -29 -15 -15 -3 -44 -13
-65 -22 -22 -10 -46 -18 -54 -18 -8 -1 -14 -5 -13 -10 1 -6 -10 -11 -24 -12
-14 0 -29 -7 -34 -15 -5 -7 -9 -10 -9 -5 0 8 -101 -43 -111 -56 -3 -5 -10 -8
-15 -8 -17 1 -44 -11 -40 -18 3 -4 -5 -8 -16 -8 -12 -1 -24 -7 -28 -14 -5 -6
-13 -8 -20 -4 -8 5 -11 4 -7 -2 6 -10 -17 -26 -27 -20 -2 1 -12 -5 -22 -14
-17 -14 -33 -22 -62 -31 -4 -1 -18 -12 -32 -25 -14 -13 -28 -23 -33 -23 -16 0
-127 -107 -127 -122 0 -5 -3 -7 -7 -5 -10 5 -37 -24 -41 -44 -2 -8 -8 -15 -13
-17 -5 -2 -9 -8 -9 -13 0 -6 -8 -19 -18 -30 -11 -10 -25 -32 -33 -47 -8 -15
-18 -30 -24 -34 -5 -4 -6 -8 -2 -8 5 0 -1 -13 -12 -29 -12 -16 -21 -34 -21
-40 0 -6 -5 -11 -12 -11 -6 0 -9 -3 -6 -6 3 -3 -4 -31 -16 -62 -12 -31 -21
-64 -21 -72 0 -8 -6 -21 -15 -28 -8 -8 -9 -11 -2 -7 6 3 12 4 12 1 0 -7 -65
-35 -94 -40 -83 -15 -96 -19 -96 -28 0 -5 -5 -6 -10 -3 -6 3 -38 -8 -72 -25
-78 -40 -100 -55 -91 -63 3 -4 -1 -7 -10 -7 -8 0 -37 -20 -63 -45 -25 -25 -49
-45 -52 -45 -4 0 -15 -9 -27 -20 -189 -187 -225 -224 -225 -234 0 -4 -5 -12
-10 -19 -40 -47 -50 -62 -55 -78 -4 -11 -11 -17 -16 -14 -5 4 -9 0 -9 -8 0
-12 -9 -26 -50 -74 -5 -7 -10 -19 -10 -28 0 -9 -5 -13 -10 -10 -6 3 -10 -1
-10 -9 0 -9 -4 -16 -10 -16 -5 0 -10 -5 -10 -11 0 -7 -20 -45 -45 -87 -25 -41
-42 -79 -38 -85 3 -6 1 -7 -5 -3 -7 4 -12 1 -12 -8 0 -9 -5 -16 -11 -16 -5 0
-8 -4 -5 -9 3 -5 -1 -14 -9 -21 -8 -7 -15 -19 -15 -26 0 -8 -4 -14 -10 -14 -5
0 -9 -3 -8 -7 3 -16 -15 -63 -24 -63 -5 0 -6 -4 -3 -10 3 -5 1 -10 -5 -10 -6
0 -9 -4 -5 -9 3 -5 1 -12 -5 -16 -6 -4 -8 -11 -5 -16 4 -5 1 -9 -6 -9 -7 0 -9
-3 -6 -6 3 -4 2 -15 -4 -26 -17 -31 -22 -59 -24 -133 -1 -38 2 -76 8 -83 5 -7
7 -15 4 -18 -3 -4 1 -13 9 -22 9 -8 12 -18 7 -21 -4 -3 -8 -15 -9 -26 -3 -54
-17 -131 -26 -142 -8 -9 -7 -13 3 -13 11 0 11 -2 1 -9 -7 -4 -12 -12 -11 -17
1 -5 0 -11 -1 -14 -7 -18 -3 -70 5 -70 6 0 5 -4 -2 -8 -13 -8 -17 -212 -3
-212 4 0 5 -10 3 -23 -4 -21 -9 -23 -69 -20 -45 2 -64 -1 -64 -9 0 -9 -3 -9
-11 -1 -7 7 -22 8 -42 3 -18 -4 -45 -11 -60 -14 -15 -4 -25 -11 -22 -16 3 -6
0 -10 -7 -10 -7 0 -24 -17 -38 -38 -14 -20 -29 -40 -35 -44 -5 -4 -6 -8 -2 -8
5 0 1 -7 -7 -16 -9 -8 -14 -19 -11 -24 3 -4 -2 -11 -11 -14 -8 -3 -13 -10 -9
-15 3 -5 1 -12 -4 -16 -6 -3 -8 -12 -4 -20 3 -8 1 -15 -5 -15 -6 0 -13 -19
-17 -42 -4 -24 -9 -52 -12 -63 -7 -31 -5 -186 2 -225 4 -19 8 -44 10 -55 5
-27 13 -59 15 -62 2 -2 4 -7 5 -13 1 -5 4 -12 5 -15 1 -3 3 -8 4 -12 10 -45
41 -123 49 -123 6 0 7 -3 4 -7 -4 -3 3 -21 14 -40 11 -18 18 -33 15 -33 -3 0
9 -26 26 -57 17 -32 42 -79 55 -105 14 -27 29 -48 34 -48 6 0 7 -4 4 -10 -3
-6 -1 -10 4 -10 6 0 10 -3 9 -7 -3 -11 65 -113 75 -113 4 0 5 -5 2 -10 -3 -6
1 -13 9 -16 9 -3 16 -12 16 -20 0 -8 5 -14 10 -14 6 0 10 -4 10 -10 0 -6 8
-19 18 -29 22 -25 32 -38 62 -81 14 -19 46 -57 71 -84 47 -49 47 -49 47 -120
0 -39 -5 -77 -10 -83 -7 -9 -7 -13 0 -13 6 0 9 -8 7 -17 -2 -10 -4 -18 -5 -18
-1 0 -3 -17 -4 -37 -1 -21 3 -38 8 -38 6 0 5 -5 -1 -11 -13 -13 3 -59 20 -59
5 0 4 -7 -3 -15 -8 -9 -8 -15 -2 -15 12 0 30 -51 35 -100 2 -20 7 -41 11 -48
4 -7 5 -12 2 -12 -3 0 -1 -11 4 -25 5 -14 12 -36 14 -48 3 -12 8 -33 11 -47 3
-14 8 -38 10 -53 2 -16 8 -34 14 -41 7 -9 7 -16 -1 -24 -7 -7 -8 -12 -3 -12 4
0 0 -10 -11 -22 -12 -13 -13 -18 -4 -13 13 8 13 7 1 -8 -7 -9 -10 -17 -6 -17
4 0 2 -7 -5 -15 -7 -8 -8 -15 -3 -15 5 0 8 -12 7 -27 -1 -30 39 -78 56 -68 6
4 10 3 9 -2 -1 -4 3 -20 9 -35 6 -15 21 -60 33 -100 12 -40 26 -75 31 -76 4
-2 5 -8 2 -14 -11 -17 86 -227 104 -228 7 0 11 -4 7 -9 -3 -5 2 -17 11 -25 8
-9 13 -16 10 -16 -7 0 67 -164 76 -168 5 -2 8 -10 8 -18 0 -8 5 -14 12 -14 6
0 9 -3 6 -6 -4 -3 14 -39 38 -80 24 -41 44 -78 44 -82 0 -5 9 -18 20 -30 12
-12 17 -22 13 -22 -4 0 -3 -4 2 -8 6 -4 27 -33 48 -64 20 -32 41 -58 45 -58 4
0 13 -14 20 -30 8 -17 18 -28 23 -24 5 3 9 -2 9 -10 0 -9 7 -16 17 -16 9 0 14
-3 10 -6 -7 -7 202 -214 216 -214 3 0 21 -15 40 -33 18 -17 44 -39 56 -47 22
-14 33 -23 80 -63 12 -9 25 -17 30 -17 5 0 11 -3 13 -7 5 -11 66 -53 77 -53 5
0 11 -3 13 -8 3 -8 165 -112 175 -112 3 0 14 -9 24 -21 20 -24 16 -46 -12 -54
-17 -6 -21 -12 -18 -31 0 -4 -4 -10 -11 -14 -6 -4 -12 -13 -14 -21 -5 -30 -28
-60 -42 -55 -7 3 -18 -2 -22 -12 -9 -17 -53 -174 -57 -202 -1 -8 -6 -23 -10
-33 -11 -27 2 -32 15 -7 11 21 15 36 24 95 3 23 33 95 39 95 2 0 3 -18 2 -40
-2 -28 6 -57 26 -95 16 -31 24 -57 18 -60 -5 -4 -3 -12 6 -21 8 -8 18 -21 22
-28 13 -20 79 -66 86 -59 4 3 7 2 7 -3 0 -16 82 -44 135 -47 17 -1 34 -6 38
-12 6 -6 10 -6 14 3 2 6 8 10 13 7 10 -6 71 24 90 45 8 8 24 15 35 15 11 0 32
3 48 7 16 4 27 3 27 -3 0 -6 6 -7 13 -2 16 10 37 10 65 1 15 -5 22 -3 22 5 0
8 3 8 8 1 4 -5 23 -8 42 -7 84 9 170 0 181 -19 4 -7 11 -9 15 -6 4 4 14 3 24
-2 9 -5 32 -12 50 -15 18 -3 41 -10 51 -15 12 -7 20 -7 24 0 4 6 11 7 17 4 10
-6 39 -10 116 -16 12 -1 22 -6 22 -10 0 -4 18 -8 39 -8 22 0 42 -4 45 -8 6
-10 146 -13 161 -4 11 7 16 8 80 16 22 3 54 7 70 10 37 6 135 9 155 4 8 -1 22
-11 31 -21 9 -9 21 -17 28 -17 6 0 11 -4 11 -10 0 -5 7 -10 15 -10 8 0 15 -5
15 -11 0 -6 7 -9 15 -5 8 3 15 1 15 -4 0 -5 7 -7 15 -4 8 4 15 2 15 -3 0 -9
72 -8 125 2 17 3 39 7 50 8 24 3 139 58 143 69 2 4 8 8 13 8 5 0 17 7 26 15
10 8 23 16 28 17 17 4 56 56 58 77 0 11 6 17 14 14 8 -3 13 3 13 18 0 19 2 21
10 9 8 -13 14 -8 12 10 0 3 8 6 18 7 11 1 23 -9 30 -28 7 -16 16 -29 21 -29
11 0 11 7 -1 29 -13 25 -20 72 -10 66 5 -3 12 0 16 6 3 6 1 14 -5 18 -6 4 -13
21 -15 37 -2 16 -9 41 -15 57 -6 15 -8 27 -6 27 2 0 0 12 -6 28 -6 15 -13 50
-15 77 -2 28 -5 62 -8 77 -4 35 9 51 54 68 56 21 104 43 119 54 7 6 19 11 25
11 18 1 106 48 106 58 0 4 5 5 10 2 6 -3 10 -1 10 5 0 6 5 8 10 5 6 -3 10 -1
10 5 0 6 4 9 8 6 5 -3 16 4 25 15 10 11 22 17 27 14 6 -3 10 -2 10 3 0 11 71
57 83 54 4 -1 7 3 7 8 0 6 8 14 18 18 26 11 112 75 112 84 0 4 7 8 15 8 7 0
19 8 24 18 6 9 11 14 11 10 0 -12 230 203 230 216 0 4 10 17 23 30 38 41 58
67 68 92 5 15 14 22 21 18 7 -4 8 -3 4 4 -4 7 -2 12 4 12 6 0 9 4 6 9 -4 5 -1
11 4 13 6 2 12 11 13 19 2 9 10 24 20 33 9 10 17 24 17 32 0 8 4 14 9 14 5 0
15 16 22 35 7 19 16 35 19 35 3 0 14 23 25 50 11 28 23 50 28 50 5 0 7 7 3 15
-3 10 1 15 12 15 15 0 15 2 2 10 -10 6 -11 10 -2 10 6 0 12 9 12 19 0 11 4 22
9 25 5 3 12 18 16 33 3 16 13 42 22 60 8 17 16 40 18 50 2 10 4 19 5 21 2 1 3
5 4 10 1 4 7 17 14 28 6 12 9 24 5 27 -3 4 0 13 7 22 7 8 9 15 6 15 -4 0 -1
10 6 23 12 22 15 32 22 72 2 11 6 27 9 35 11 33 31 136 29 148 -2 6 1 12 6 12
4 0 9 10 9 23 2 33 11 86 17 96 6 9 19 100 20 144 1 15 3 27 7 27 3 0 5 10 6
23 1 12 3 32 6 45 4 13 1 22 -6 22 -9 0 -9 2 -1 8 7 4 14 24 17 45 3 21 8 41
11 44 3 3 1 15 -5 26 -8 14 -8 18 1 12 8 -5 11 1 9 21 -2 16 -1 34 3 39 3 6 4
18 3 28 -2 9 0 17 3 17 4 0 8 24 9 53 3 64 11 151 13 155 2 1 4 11 5 22 1 11
4 23 5 28 1 4 2 9 2 12 0 3 16 4 37 2 30 -3 43 2 69 26 18 17 32 33 32 37 0 3
6 13 13 20 22 25 32 40 46 68 8 15 18 27 23 27 5 0 6 5 3 10 -3 6 1 13 9 16 9
3 16 12 16 20 0 8 4 14 10 14 5 0 12 11 16 25 3 14 10 25 15 25 5 0 9 6 9 14
0 8 6 21 13 28 6 7 13 20 15 28 2 8 14 41 26 72 13 32 19 55 14 52 -6 -4 -4 4
3 17 7 13 14 31 15 39 1 8 5 26 9 40 3 14 8 39 10 55 2 17 5 30 6 30 1 0 3 9
5 20 1 11 6 34 10 50 4 17 7 45 8 62 1 18 3 33 6 33 3 0 5 12 5 28 -1 15 1 32
4 37 9 15 9 189 0 200 -4 6 -9 15 -11 20 -1 6 -5 9 -8 8 -3 -1 -7 10 -8 24 -1
14 -8 39 -16 54 -10 21 -11 29 -3 29 9 0 9 2 0 8 -7 4 -14 17 -16 27 -2 11 -9
33 -15 48 -7 16 -12 31 -12 34 0 6 -40 44 -80 77 -13 10 -33 19 -45 20 -13 0
-21 4 -19 7 7 11 -22 18 -36 9 -19 -12 -37 16 -39 60 -1 19 -4 51 -6 70 -5 34
-6 48 -4 73 0 14 -9 71 -18 107 -3 14 -7 38 -9 54 -3 16 -10 36 -17 45 -10 12
-9 14 3 7 9 -4 8 -2 -2 7 -10 8 -15 17 -11 20 3 4 1 12 -4 19 -6 7 -9 21 -8
30 2 9 -4 19 -12 22 -8 3 -12 10 -9 15 5 8 -10 69 -31 121 -3 8 -7 21 -9 29
-1 8 -6 17 -11 20 -4 3 -10 15 -11 26 -2 11 -8 22 -13 23 -5 2 -6 8 -3 13 3 6
-2 19 -12 30 -9 10 -14 19 -10 19 3 0 -4 19 -16 43 -24 45 -25 48 -27 74 0 9
-4 13 -8 10 -7 -7 -38 51 -35 66 1 4 -3 7 -8 7 -6 0 -10 7 -10 15 0 8 -3 15
-8 15 -4 0 -15 17 -24 38 -18 38 -49 93 -58 102 -3 3 -20 27 -37 55 -26 40
-30 52 -20 64 9 12 9 13 0 7 -7 -4 -13 -3 -13 1 0 5 9 14 20 21 11 7 20 20 20
30 0 20 -44 64 -54 55 -6 -6 -7 -4 -11 33 -1 12 -5 26 -9 32 -3 6 -2 13 3 17
12 7 2 99 -10 103 -5 2 -7 7 -4 12 7 11 -15 60 -27 60 -4 0 -8 6 -8 13 0 7
-11 25 -25 40 -14 15 -23 27 -21 27 3 0 -2 9 -11 19 -9 11 -20 18 -25 15 -4
-3 -8 2 -8 10 0 16 -45 66 -59 66 -4 0 -14 11 -21 25 -7 14 -15 23 -17 21 -2
-2 -32 24 -68 58 -70 67 -88 83 -125 109 -13 9 -20 17 -15 17 5 0 -2 8 -15 17
-14 9 -31 25 -38 35 -7 10 -18 16 -23 13 -5 -4 -9 1 -9 9 0 9 -7 16 -16 16 -8
0 -12 5 -9 10 3 6 2 10 -2 10 -5 0 -20 11 -35 24 -14 14 -29 22 -32 19 -3 -4
-6 1 -6 10 0 8 -9 19 -21 22 -11 4 -18 10 -14 13 3 3 -3 11 -13 16 -30 17 -92
74 -92 86 0 5 -6 10 -12 10 -7 0 -28 18 -47 40 -19 22 -40 40 -47 40 -8 0 -14
4 -14 9 0 13 -108 120 -114 113 -3 -3 -6 0 -6 7 0 15 -107 121 -115 113 -3 -3
-5 2 -5 11 0 8 -9 19 -21 22 -11 4 -18 9 -16 12 6 5 -47 58 -128 128 -32 28
-65 58 -74 68 -8 9 -21 17 -28 17 -7 0 -13 5 -13 10 0 6 -7 10 -15 10 -7 0
-19 8 -24 18 -6 9 -11 13 -11 9 0 -5 -13 1 -29 12 -15 11 -31 18 -35 14 -3 -3
-6 -1 -6 5 0 6 -9 14 -20 17 -11 4 -18 10 -16 14 3 4 -5 8 -16 8 -12 1 -24 6
-27 11 -3 6 -15 12 -26 14 -11 1 -29 11 -39 20 -10 10 -23 15 -28 12 -4 -3 -8
0 -8 6 0 6 -4 8 -10 5 -5 -3 -10 -1 -10 6 0 7 -3 10 -6 7 -3 -4 -17 0 -31 7
-15 8 -30 12 -35 9 -4 -3 -8 0 -8 6 0 6 -4 8 -10 5 -5 -3 -10 -1 -10 5 0 6 -4
9 -8 6 -5 -3 -20 1 -35 9 -20 10 -27 11 -27 2 0 -8 -3 -8 -8 -2 -4 6 -14 12
-22 13 -8 2 -23 6 -32 8 -10 2 -27 6 -38 8 -11 3 -20 0 -20 -7 0 -9 -3 -8 -8
1 -5 7 -33 13 -70 15 -34 1 -62 4 -62 7 0 3 -26 6 -57 7 -32 1 -82 4 -110 6
-29 2 -54 2 -56 1z m-1212 -7542 c-3 -3 -11 0 -18 7 -9 10 -8 11 6 5 10 -3 15
-9 12 -12z"/>
<path d="M6241 1713 c10 -11 10 -14 2 -9 -9 5 -13 0 -13 -13 0 -12 6 -21 13
-21 7 0 8 -3 2 -8 -15 -10 -17 -32 -3 -32 6 0 8 -3 5 -6 -3 -4 -2 -15 4 -25 7
-14 6 -19 -3 -19 -10 0 -10 -2 0 -9 8 -4 13 -11 12 -15 -5 -20 24 -118 36
-123 8 -3 11 -10 7 -17 -3 -6 -2 -7 2 -3 14 13 14 37 0 37 -9 0 -12 13 -11 40
2 31 -1 39 -11 35 -9 -3 -11 -1 -6 8 10 16 13 37 5 37 -8 0 -14 44 -16 105 -1
38 -10 55 -30 55 -5 0 -2 -8 5 -17z"/>
<path d="M6370 1603 c1 -5 7 -19 15 -33 16 -28 20 -54 7 -46 -5 3 -9 -8 -10
-24 0 -20 4 -30 14 -30 9 0 12 5 8 13 -4 6 5 1 19 -12 15 -13 33 -21 41 -18
15 6 41 -12 48 -35 3 -7 12 -9 22 -5 18 7 18 8 1 27 -10 11 -15 26 -12 34 9
22 -9 29 -26 11 -20 -19 -47 -19 -47 0 0 8 -5 15 -11 15 -5 0 -8 3 -6 8 3 4 0
18 -6 32 -5 14 -11 31 -13 39 -4 21 -45 43 -44 24z"/>
<path d="M6550 1519 c0 -7 9 -27 21 -45 11 -19 17 -34 12 -34 -4 0 5 -9 21
-19 17 -11 33 -18 38 -15 4 3 8 1 8 -4 0 -6 14 -15 31 -21 27 -9 30 -8 25 5
-3 9 -6 19 -6 22 0 4 -4 1 -9 -7 -7 -11 -10 -9 -16 8 -3 11 -11 21 -17 21 -6
0 -25 16 -44 35 -18 19 -30 35 -28 35 3 0 -1 7 -10 15 -17 18 -26 19 -26 4z"/>
<path d="M6630 1508 c0 -4 5 -19 12 -33 10 -22 20 -27 44 -24 4 0 10 -4 13
-10 5 -8 13 -6 27 4 18 14 18 14 -8 15 -16 0 -31 0 -35 -1 -4 0 -10 7 -13 16
-3 9 -10 16 -14 15 -5 -1 -13 4 -17 12 -5 7 -9 10 -9 6z"/>
<path d="M6760 1477 c0 -12 46 -64 84 -94 24 -20 29 4 6 27 -11 11 -20 25 -20
32 0 6 -3 8 -7 5 -3 -4 -16 5 -29 18 -26 28 -34 31 -34 12z"/>
<path d="M3565 1450 c-3 -11 -4 -24 0 -29 3 -6 -1 -13 -9 -18 -7 -4 -17 -23
-21 -42 -9 -44 9 -34 31 17 8 20 20 45 25 54 13 25 11 38 -5 38 -8 0 -17 -9
-21 -20z"/>
<path d="M6385 1439 c5 -25 28 -44 34 -28 2 6 -2 15 -9 19 -6 4 -11 11 -10 16
1 5 -3 10 -9 12 -6 2 -8 -6 -6 -19z"/>
<path d="M3485 1400 c-3 -11 -11 -20 -16 -20 -6 0 -7 -6 -3 -12 6 -10 4 -10
-8 0 -17 13 -52 6 -42 -9 3 -5 1 -9 -4 -9 -9 0 -62 -70 -62 -83 0 -3 7 -4 15
-1 8 4 15 11 15 18 0 6 12 24 26 39 18 20 31 26 46 21 21 -6 50 24 55 58 4 25
-14 23 -22 -2z"/>
</g>
</svg>
